<svg xmlns="http://www.w3.org/2000/svg" xmlns:xlink="http://www.w3.org/1999/xlink" width="100" zoomAndPan="magnify" viewBox="0 0 75 30.000001" height="40" preserveAspectRatio="xMidYMid meet" version="1.0"><defs><g/><clipPath id="8d18ad6455"><path d="M 55.722656 5.132812 L 72.417969 5.132812 L 72.417969 26.179688 L 55.722656 26.179688 Z M 55.722656 5.132812 " clip-rule="nonzero"/></clipPath></defs><g clip-path="url(#8d18ad6455)"><path fill="#ffffff" d="M 62.542969 17.785156 C 62.523438 17.773438 62.507812 17.761719 62.492188 17.75 C 62.4375 17.820312 62.378906 17.886719 62.324219 17.957031 C 62.339844 17.972656 62.359375 17.984375 62.375 18 C 62.429688 17.929688 62.484375 17.855469 62.542969 17.785156 Z M 68 12.785156 C 67.980469 12.769531 67.964844 12.753906 67.945312 12.738281 C 67.890625 12.792969 67.839844 12.851562 67.785156 12.910156 C 67.800781 12.925781 67.820312 12.941406 67.835938 12.960938 C 67.890625 12.902344 67.945312 12.84375 68 12.785156 Z M 67.472656 13.429688 C 67.453125 13.414062 67.433594 13.394531 67.414062 13.378906 C 67.359375 13.445312 67.304688 13.511719 67.246094 13.578125 C 67.269531 13.59375 67.289062 13.613281 67.308594 13.628906 C 67.363281 13.5625 67.417969 13.496094 67.472656 13.429688 Z M 67.039062 13.953125 C 67.015625 13.929688 66.992188 13.902344 66.964844 13.878906 C 66.894531 13.96875 66.820312 14.058594 66.75 14.148438 C 66.769531 14.167969 66.789062 14.183594 66.808594 14.199219 C 66.886719 14.117188 66.964844 14.035156 67.039062 13.953125 Z M 60.285156 8.941406 C 60.316406 8.9375 60.34375 8.929688 60.371094 8.921875 C 60.355469 8.851562 60.335938 8.777344 60.320312 8.703125 C 60.292969 8.710938 60.265625 8.71875 60.238281 8.722656 C 60.253906 8.796875 60.269531 8.871094 60.285156 8.941406 Z M 61.457031 19.152344 C 61.6875 19.0625 61.832031 18.925781 61.808594 18.574219 C 61.652344 18.832031 61.554688 18.992188 61.457031 19.152344 Z M 68.101562 9.566406 C 68.125 9.585938 68.148438 9.605469 68.175781 9.628906 C 68.3125 9.441406 68.445312 9.257812 68.582031 9.070312 C 68.546875 9.046875 68.507812 9.019531 68.46875 8.996094 C 68.34375 9.183594 68.222656 9.375 68.101562 9.566406 Z M 61.605469 18.03125 C 61.570312 18.011719 61.539062 17.992188 61.507812 17.972656 C 61.273438 18.222656 61.078125 18.492188 61.015625 18.851562 C 61.214844 18.578125 61.410156 18.304688 61.605469 18.03125 Z M 62.722656 10.480469 C 62.921875 11.457031 63.195312 12.394531 63.820312 13.191406 C 63.453125 12.285156 63.085938 11.382812 62.722656 10.480469 Z M 65.28125 19.804688 C 65.324219 19.785156 65.363281 19.765625 65.402344 19.746094 C 65.101562 19.027344 64.800781 18.3125 64.496094 17.589844 C 64.195312 17.726562 64.261719 17.9375 64.339844 18.085938 C 64.640625 18.664062 64.964844 19.230469 65.28125 19.804688 Z M 62.265625 15.480469 C 62.289062 14.984375 61.964844 14.648438 61.808594 14.257812 C 61.648438 13.847656 61.445312 13.453125 61.261719 13.050781 C 61.066406 12.636719 60.871094 12.21875 60.683594 11.800781 C 60.511719 11.421875 60.34375 11.042969 60.171875 10.664062 C 60.332031 11.828125 61.804688 15.128906 62.265625 15.480469 Z M 66.371094 19.832031 C 66.359375 19.742188 66.367188 19.644531 66.328125 19.570312 C 65.917969 18.75 65.5 17.933594 65.082031 17.117188 C 65.058594 17.070312 65.007812 17.035156 64.972656 16.996094 C 64.941406 17.015625 64.910156 17.035156 64.875 17.054688 C 64.957031 17.230469 65.035156 17.40625 65.125 17.582031 C 65.222656 17.773438 65.324219 17.96875 65.433594 18.15625 C 65.75 18.710938 66.066406 19.265625 66.386719 19.820312 C 66.660156 20.605469 67.105469 21.300781 67.5625 21.988281 C 67.339844 21.457031 67.074219 20.945312 66.789062 20.445312 C 66.667969 20.230469 66.511719 20.035156 66.371094 19.832031 Z M 70.238281 9.523438 C 70.355469 9.433594 70.472656 9.34375 70.59375 9.253906 C 70.558594 9.222656 70.523438 9.191406 70.488281 9.160156 C 70.40625 9.285156 70.328125 9.410156 70.25 9.535156 C 70.039062 9.742188 69.828125 9.953125 69.617188 10.164062 C 69.902344 10.015625 70.183594 9.867188 70.238281 9.523438 Z M 65.601562 13.828125 C 65.789062 13.664062 65.992188 13.511719 66.15625 13.328125 C 67.550781 11.757812 68.929688 10.175781 70.335938 8.617188 C 70.789062 8.109375 71.300781 7.65625 71.796875 7.1875 C 71.917969 7.070312 72.085938 7 72.222656 6.910156 C 72.460938 7.148438 72.332031 7.296875 72.199219 7.425781 C 71.964844 7.660156 71.71875 7.882812 71.480469 8.113281 C 71.34375 8.25 71.214844 8.394531 71.113281 8.566406 C 71.585938 8.457031 71.769531 7.839844 72.46875 7.875 C 69.917969 10.652344 67.695312 13.546875 65.351562 16.425781 C 65.984375 17.691406 66.605469 18.941406 67.234375 20.1875 C 67.480469 20.679688 67.789062 21.148438 67.984375 21.660156 C 68.253906 22.359375 68.441406 23.085938 68.664062 23.800781 C 68.394531 23.882812 68.394531 23.882812 67.796875 23.125 C 67.707031 23.339844 67.652344 23.652344 67.324219 23.363281 C 67.328125 23.871094 67.8125 24.21875 67.660156 24.851562 C 67.367188 24.585938 67.15625 24.398438 66.941406 24.207031 C 66.917969 24.226562 66.894531 24.242188 66.867188 24.261719 C 66.921875 24.460938 66.972656 24.65625 67.050781 24.945312 C 66.890625 24.878906 66.769531 24.863281 66.730469 24.800781 C 66.640625 24.644531 66.582031 24.46875 66.519531 24.292969 C 65.890625 22.511719 64.914062 20.90625 63.96875 19.285156 C 63.851562 19.078125 63.730469 18.875 63.570312 18.59375 C 63.398438 18.8125 63.261719 18.996094 63.125 19.175781 C 61.988281 20.695312 60.863281 22.21875 59.722656 23.730469 C 59.175781 24.449219 58.609375 25.148438 58.046875 25.851562 C 57.960938 25.957031 57.828125 26.023438 57.703125 26.121094 C 57.40625 25.742188 57.859375 25.542969 57.839844 25.183594 C 57.441406 25.441406 57.359375 26.089844 56.710938 25.980469 C 56.828125 25.738281 56.929688 25.53125 57.035156 25.316406 C 56.828125 25.308594 56.644531 25.300781 56.429688 25.292969 C 56.25 25.417969 56.207031 25.804688 55.722656 25.738281 C 55.921875 25.445312 56.070312 25.226562 56.222656 25.003906 C 56.351562 24.816406 56.441406 24.660156 56.425781 24.378906 C 56.40625 24.066406 56.609375 23.714844 56.789062 23.425781 C 57.269531 22.664062 57.789062 21.929688 58.296875 21.183594 C 59.238281 19.804688 60.179688 18.425781 61.125 17.050781 C 61.34375 16.730469 61.566406 16.414062 61.808594 16.113281 C 61.984375 15.894531 61.976562 15.703125 61.859375 15.457031 C 61.378906 14.445312 60.890625 13.433594 60.460938 12.398438 C 60.113281 11.550781 59.84375 10.671875 59.546875 9.800781 C 59.453125 9.527344 59.460938 9.253906 59.734375 9.070312 C 59.660156 8.808594 59.621094 8.546875 59.515625 8.316406 C 59.308594 7.871094 59.414062 7.535156 59.816406 7.273438 C 60.1875 7.257812 60.023438 7.644531 60.214844 7.804688 C 60.316406 7.78125 60.433594 7.753906 60.601562 7.710938 C 60.882812 8.519531 61.15625 9.316406 61.433594 10.117188 C 61.472656 10.105469 61.511719 10.09375 61.550781 10.082031 C 61.542969 9.988281 61.550781 9.886719 61.523438 9.796875 C 61.378906 9.359375 61.207031 8.929688 61.082031 8.492188 C 61.023438 8.289062 61.066406 8.058594 61.019531 7.851562 C 60.945312 7.515625 60.84375 7.1875 60.726562 6.859375 C 60.65625 6.652344 60.539062 6.460938 60.765625 6.207031 C 61.050781 6.5 61.027344 6.886719 61.15625 7.210938 C 61.289062 7.550781 61.394531 7.90625 61.511719 8.253906 C 61.628906 8.597656 61.75 8.941406 61.972656 9.253906 C 61.890625 8.941406 61.796875 8.632812 61.722656 8.320312 C 61.648438 8.027344 61.425781 7.722656 61.796875 7.351562 C 62.203125 8.335938 62.503906 9.289062 62.871094 10.214844 C 63.234375 11.136719 63.601562 12.058594 64 13.074219 C 64.214844 12.832031 64.378906 12.664062 64.515625 12.480469 C 66.183594 10.296875 67.925781 8.179688 69.792969 6.164062 C 70.113281 5.816406 70.515625 5.539062 70.886719 5.242188 C 70.960938 5.183594 71.074219 5.179688 71.21875 5.132812 C 71.222656 5.671875 70.6875 5.859375 70.601562 6.289062 C 70.832031 6.558594 71.121094 6.65625 71.511719 6.546875 C 71.480469 6.675781 71.484375 6.757812 71.445312 6.800781 C 70.945312 7.339844 70.429688 7.863281 69.945312 8.414062 C 69.390625 9.054688 68.863281 9.714844 68.332031 10.375 C 67.453125 11.460938 66.578125 12.554688 65.707031 13.648438 C 65.664062 13.703125 65.644531 13.777344 65.617188 13.84375 C 65.535156 13.925781 65.457031 14.007812 65.378906 14.09375 C 65.410156 14.113281 65.4375 14.132812 65.464844 14.152344 C 65.511719 14.046875 65.558594 13.9375 65.601562 13.828125 " fill-opacity="1" fill-rule="nonzero"/></g><g fill="#ffffff" fill-opacity="1"><g transform="translate(3.387096, 19.302433)"><g><path d="M 0.296875 -12.390625 L 0.140625 -12.484375 L 4.40625 -12.484375 L 4.4375 -12.375 C 4.445312 -12.320312 4.457031 -12.273438 4.46875 -12.234375 C 4.476562 -12.191406 4.488281 -12.148438 4.5 -12.109375 C 4.53125 -12.046875 4.597656 -11.8125 4.703125 -11.40625 C 4.804688 -11 4.960938 -10.429688 5.171875 -9.703125 C 5.191406 -9.640625 5.21875 -9.550781 5.25 -9.4375 C 5.28125 -9.320312 5.320312 -9.179688 5.375 -9.015625 C 5.425781 -8.835938 5.46875 -8.6875 5.5 -8.5625 C 5.53125 -8.445312 5.554688 -8.359375 5.578125 -8.296875 C 5.773438 -7.578125 5.9375 -6.988281 6.0625 -6.53125 C 6.195312 -6.070312 6.296875 -5.722656 6.359375 -5.484375 C 6.378906 -5.421875 6.40625 -5.332031 6.4375 -5.21875 C 6.46875 -5.101562 6.507812 -4.957031 6.5625 -4.78125 C 6.601562 -4.613281 6.640625 -4.472656 6.671875 -4.359375 C 6.703125 -4.242188 6.722656 -4.15625 6.734375 -4.09375 C 6.828125 -3.8125 6.910156 -3.53125 6.984375 -3.25 C 7.054688 -2.976562 7.128906 -2.703125 7.203125 -2.421875 C 7.253906 -2.296875 7.28125 -2.226562 7.28125 -2.21875 C 7.289062 -2.207031 7.328125 -2.304688 7.390625 -2.515625 C 7.535156 -3.066406 7.660156 -3.539062 7.765625 -3.9375 C 7.867188 -4.332031 7.953125 -4.664062 8.015625 -4.9375 C 8.054688 -5.070312 8.097656 -5.21875 8.140625 -5.375 C 8.179688 -5.53125 8.234375 -5.703125 8.296875 -5.890625 C 8.316406 -5.992188 8.351562 -6.132812 8.40625 -6.3125 C 8.457031 -6.5 8.519531 -6.726562 8.59375 -7 C 8.65625 -7.226562 8.703125 -7.40625 8.734375 -7.53125 C 8.773438 -7.664062 8.800781 -7.753906 8.8125 -7.796875 C 8.882812 -8.066406 8.945312 -8.300781 9 -8.5 C 9.0625 -8.695312 9.113281 -8.863281 9.15625 -9 C 9.425781 -9.957031 9.640625 -10.71875 9.796875 -11.28125 C 9.953125 -11.851562 10.054688 -12.222656 10.109375 -12.390625 L 10.140625 -12.46875 L 11.953125 -12.484375 C 13.160156 -12.460938 13.765625 -12.453125 13.765625 -12.453125 C 13.628906 -12.023438 13.488281 -11.582031 13.34375 -11.125 C 13.195312 -10.664062 13.039062 -10.171875 12.875 -9.640625 C 12.6875 -9.078125 12.503906 -8.507812 12.328125 -7.9375 C 12.148438 -7.363281 11.972656 -6.78125 11.796875 -6.1875 C 11.398438 -4.988281 11.019531 -3.800781 10.65625 -2.625 C 10.300781 -1.457031 9.941406 -0.273438 9.578125 0.921875 L 9.4375 1.40625 L 5.15625 1.40625 L 5 1.078125 C 4.988281 0.953125 4.898438 0.65625 4.734375 0.1875 L 4.734375 0.125 L 4.703125 0.109375 L 4.703125 0.078125 L 4.6875 0.03125 C 4.019531 -2.101562 3.410156 -4.0625 2.859375 -5.84375 C 2.523438 -6.882812 2.269531 -7.675781 2.09375 -8.21875 C 1.925781 -8.757812 1.835938 -9.054688 1.828125 -9.109375 C 1.640625 -9.679688 1.472656 -10.21875 1.328125 -10.71875 C 1.296875 -10.820312 1.242188 -10.957031 1.171875 -11.125 C 1.109375 -11.289062 1.03125 -11.457031 0.9375 -11.625 C 0.84375 -11.789062 0.738281 -11.941406 0.625 -12.078125 C 0.519531 -12.222656 0.410156 -12.328125 0.296875 -12.390625 Z M 0.296875 -12.390625 "/></g></g></g><g fill="#ffffff" fill-opacity="1"><g transform="translate(17.495878, 19.302433)"><g><path d="M 6.09375 -9.40625 C 6.613281 -9.40625 7.113281 -9.363281 7.59375 -9.28125 C 8.082031 -9.207031 8.523438 -9.070312 8.921875 -8.875 C 9.328125 -8.6875 9.679688 -8.414062 9.984375 -8.0625 C 10.285156 -7.71875 10.515625 -7.273438 10.671875 -6.734375 L 10.765625 -6.46875 L 10.765625 1.40625 L 7.125 1.40625 L 7.125 -3.171875 L 6.109375 -3.15625 L 5.078125 -3.15625 L 4.875 -3.0625 C 4.664062 -2.96875 4.53125 -2.765625 4.46875 -2.453125 C 4.375 -1.984375 4.46875 -1.601562 4.75 -1.3125 C 4.9375 -1.09375 5.257812 -0.984375 5.71875 -0.984375 C 5.894531 -0.984375 6.066406 -1 6.234375 -1.03125 C 6.410156 -1.0625 6.570312 -1.113281 6.71875 -1.1875 C 6.75 -1.1875 6.765625 -1.171875 6.765625 -1.140625 C 6.773438 -1.097656 6.78125 -0.742188 6.78125 -0.078125 L 6.78125 1.03125 L 6.59375 1.140625 C 6.269531 1.304688 5.921875 1.421875 5.546875 1.484375 C 5.179688 1.554688 4.820312 1.59375 4.46875 1.59375 C 4.257812 1.59375 4.0625 1.582031 3.875 1.5625 C 3.6875 1.539062 3.507812 1.503906 3.34375 1.453125 C 2.425781 1.210938 1.71875 0.734375 1.21875 0.015625 C 0.71875 -0.691406 0.484375 -1.53125 0.515625 -2.5 C 0.585938 -4.0625 1.425781 -4.992188 3.03125 -5.296875 C 3.195312 -5.328125 3.929688 -5.351562 5.234375 -5.375 L 7.125 -5.390625 L 7.109375 -5.71875 C 7.085938 -6.1875 6.957031 -6.488281 6.71875 -6.625 C 6.488281 -6.757812 6.164062 -6.828125 5.75 -6.828125 C 5.675781 -6.828125 5.570312 -6.820312 5.4375 -6.8125 C 5.3125 -6.800781 5.179688 -6.78125 5.046875 -6.75 C 4.910156 -6.71875 4.785156 -6.671875 4.671875 -6.609375 C 4.554688 -6.554688 4.484375 -6.484375 4.453125 -6.390625 L 4.40625 -6.296875 L 1.03125 -6.296875 C 1.03125 -6.367188 1.132812 -6.628906 1.34375 -7.078125 C 1.53125 -7.410156 1.753906 -7.722656 2.015625 -8.015625 C 2.285156 -8.304688 2.539062 -8.539062 2.78125 -8.71875 C 3.289062 -9.039062 3.828125 -9.234375 4.390625 -9.296875 C 4.953125 -9.367188 5.519531 -9.40625 6.09375 -9.40625 Z M 6.09375 -9.40625 "/></g></g></g><g fill="#ffffff" fill-opacity="1"><g transform="translate(29.462488, 19.302433)"><g><path d="M 5.5625 -9.375 C 6.15625 -9.375 6.757812 -9.28125 7.375 -9.09375 C 7.988281 -8.914062 8.515625 -8.632812 8.953125 -8.25 C 9.203125 -8.03125 9.425781 -7.726562 9.625 -7.34375 C 9.820312 -6.96875 9.9375 -6.613281 9.96875 -6.28125 L 10.015625 -6.09375 L 6.53125 -6.09375 L 6.5 -6.28125 C 6.445312 -6.5625 6.328125 -6.769531 6.140625 -6.90625 C 5.960938 -7.050781 5.742188 -7.125 5.484375 -7.125 C 5.179688 -7.125 4.9375 -7.070312 4.75 -6.96875 C 4.582031 -6.851562 4.472656 -6.71875 4.421875 -6.5625 C 4.378906 -6.40625 4.394531 -6.257812 4.46875 -6.125 C 4.53125 -6.039062 4.609375 -5.96875 4.703125 -5.90625 C 4.804688 -5.84375 4.925781 -5.78125 5.0625 -5.71875 C 5.332031 -5.613281 5.832031 -5.472656 6.5625 -5.296875 C 6.84375 -5.234375 7.140625 -5.15625 7.453125 -5.0625 C 7.765625 -4.976562 8.066406 -4.867188 8.359375 -4.734375 C 8.660156 -4.597656 8.9375 -4.429688 9.1875 -4.234375 C 9.4375 -4.035156 9.632812 -3.800781 9.78125 -3.53125 C 10.101562 -2.988281 10.226562 -2.363281 10.15625 -1.65625 C 10.09375 -1.039062 9.914062 -0.523438 9.625 -0.109375 C 9.34375 0.296875 8.984375 0.617188 8.546875 0.859375 C 8.117188 1.109375 7.640625 1.285156 7.109375 1.390625 C 6.585938 1.492188 6.054688 1.546875 5.515625 1.546875 C 4.960938 1.546875 4.398438 1.492188 3.828125 1.390625 C 3.265625 1.296875 2.75 1.125 2.28125 0.875 C 1.820312 0.625 1.429688 0.285156 1.109375 -0.140625 C 0.796875 -0.578125 0.609375 -1.128906 0.546875 -1.796875 L 0.53125 -2 L 2.265625 -1.96875 L 3.984375 -1.96875 L 4.03125 -1.796875 C 4.050781 -1.609375 4.113281 -1.453125 4.21875 -1.328125 C 4.320312 -1.203125 4.441406 -1.097656 4.578125 -1.015625 C 4.722656 -0.929688 4.878906 -0.867188 5.046875 -0.828125 C 5.222656 -0.796875 5.394531 -0.78125 5.5625 -0.78125 C 5.695312 -0.78125 5.847656 -0.796875 6.015625 -0.828125 C 6.179688 -0.859375 6.3125 -0.921875 6.40625 -1.015625 C 6.53125 -1.128906 6.613281 -1.253906 6.65625 -1.390625 C 6.695312 -1.535156 6.6875 -1.671875 6.625 -1.796875 C 6.582031 -1.890625 6.519531 -1.972656 6.4375 -2.046875 C 6.351562 -2.117188 6.25 -2.1875 6.125 -2.25 C 6.03125 -2.300781 5.835938 -2.367188 5.546875 -2.453125 C 5.253906 -2.535156 4.875 -2.644531 4.40625 -2.78125 C 3.25 -3.101562 2.4375 -3.425781 1.96875 -3.75 C 1.582031 -4.007812 1.304688 -4.328125 1.140625 -4.703125 C 0.972656 -5.085938 0.890625 -5.503906 0.890625 -5.953125 C 0.878906 -6.421875 0.957031 -6.847656 1.125 -7.234375 C 1.34375 -7.671875 1.613281 -8.023438 1.9375 -8.296875 C 2.257812 -8.578125 2.613281 -8.796875 3 -8.953125 C 3.382812 -9.117188 3.796875 -9.226562 4.234375 -9.28125 C 4.671875 -9.34375 5.113281 -9.375 5.5625 -9.375 Z M 5.5625 -9.375 "/></g></g></g><g fill="#ffffff" fill-opacity="1"><g transform="translate(40.191811, 19.302433)"><g><path d="M 0.71875 -9.171875 C 0.644531 -9.203125 0.65625 -9.21875 0.75 -9.21875 C 0.738281 -9.226562 0.894531 -9.234375 1.21875 -9.234375 C 1.550781 -9.234375 2.03125 -9.234375 2.65625 -9.234375 L 4.9375 -9.234375 L 4.9375 -5.375 C 4.9375 -4.519531 4.9375 -3.835938 4.9375 -3.328125 C 4.9375 -2.828125 4.941406 -2.5 4.953125 -2.34375 C 4.972656 -2.019531 5.019531 -1.804688 5.09375 -1.703125 L 5.140625 -1.65625 C 5.242188 -1.519531 5.382812 -1.414062 5.5625 -1.34375 C 5.75 -1.28125 5.925781 -1.25 6.09375 -1.25 C 6.414062 -1.25 6.664062 -1.335938 6.84375 -1.515625 C 7.03125 -1.703125 7.171875 -1.941406 7.265625 -2.234375 C 7.273438 -2.296875 7.28125 -2.597656 7.28125 -3.140625 C 7.289062 -3.679688 7.296875 -4.472656 7.296875 -5.515625 C 7.296875 -7.578125 7.285156 -8.65625 7.265625 -8.75 C 7.242188 -8.820312 7.191406 -8.898438 7.109375 -8.984375 C 7.023438 -9.078125 6.941406 -9.140625 6.859375 -9.171875 C 6.773438 -9.203125 6.789062 -9.21875 6.90625 -9.21875 C 6.96875 -9.226562 7.15625 -9.234375 7.46875 -9.234375 C 7.78125 -9.234375 8.234375 -9.234375 8.828125 -9.234375 L 10.921875 -9.234375 L 10.921875 1.40625 L 7.296875 1.40625 L 7.296875 0.234375 L 7.015625 0.5 C 6.285156 1.1875 5.398438 1.53125 4.359375 1.53125 C 3.566406 1.53125 2.910156 1.316406 2.390625 0.890625 C 1.867188 0.472656 1.503906 -0.101562 1.296875 -0.84375 L 1.203125 -1.15625 L 1.203125 -8.609375 L 1.09375 -8.765625 C 1 -8.960938 0.875 -9.097656 0.71875 -9.171875 Z M 0.71875 -9.171875 "/></g></g></g></svg>